<?xml version="1.0" encoding="UTF-8" standalone="no"?>
<!-- Created with Inkscape (http://www.inkscape.org/) -->

<svg
   xmlns:dc="http://purl.org/dc/elements/1.1/"
   xmlns:cc="http://creativecommons.org/ns#"
   xmlns:rdf="http://www.w3.org/1999/02/22-rdf-syntax-ns#"
   xmlns:svg="http://www.w3.org/2000/svg"
   xmlns="http://www.w3.org/2000/svg"
   xmlns:sodipodi="http://sodipodi.sourceforge.net/DTD/sodipodi-0.dtd"
   xmlns:inkscape="http://www.inkscape.org/namespaces/inkscape"
   version="1.1"
   id="svg2"
   width="26"
   height="26.041006"
   viewBox="0 0 26 26.041006"
   sodipodi:docname="insta.svg"
   inkscape:version="0.92.1 r15371">
  <metadata
     id="metadata8">
    <rdf:RDF>
      <cc:Work
         rdf:about="">
        <dc:format>image/svg+xml</dc:format>
        <dc:type
           rdf:resource="http://purl.org/dc/dcmitype/StillImage" />
        <dc:title></dc:title>
      </cc:Work>
    </rdf:RDF>
  </metadata>
  <defs
     id="defs6" />
  <sodipodi:namedview
     pagecolor="#ffffff"
     bordercolor="#666666"
     borderopacity="1"
     objecttolerance="10"
     gridtolerance="10"
     guidetolerance="10"
     inkscape:pageopacity="0"
     inkscape:pageshadow="2"
     inkscape:window-width="1920"
     inkscape:window-height="1017"
     id="namedview4"
     showgrid="false"
     inkscape:zoom="1"
     inkscape:cx="-508.34407"
     inkscape:cy="-143.23079"
     inkscape:window-x="-8"
     inkscape:window-y="-8"
     inkscape:window-maximized="1"
     inkscape:current-layer="svg2" />
  <path
     style="fill:#efebeb;stroke-width:0.28654221;fill-opacity:1"
     d="M 12.954046,8.4066491e-4 C 11.917718,0.01261066 10.868696,0.14876166 9.8272662,0.42001966 4.7677568,1.7378557 1.075464,5.8087407 0.17437543,11.063497 c -1.06048807,6.184302 2.81819877,12.50541 8.85818127,14.436241 2.2896833,0.731946 5.7813473,0.720324 8.2022723,-0.02743 3.699619,-1.142693 7.251342,-4.731746 8.319799,-8.4071 0.621147,-2.136667 0.587743,-5.997395 -0.06996,-8.1043373 C 23.779464,3.4982957 18.550188,-0.06263134 12.954045,8.3466491e-4 Z M 12.941176,1.2583767 c 4.244897,-0.0364 8.49643,2.228726 10.697207,6.681695 1.03491,2.0940143 1.078616,2.3007983 1.068931,5.0631813 -0.01319,3.750748 -0.673133,5.50643 -3.00701,8.001352 -1.743587,1.863901 -3.786108,3.081286 -6.042011,3.60137 -2.689791,0.6201 -6.0909358,0.1079 -8.445717,-1.272095 C 5.3993163,22.27124 3.4468592,20.121365 2.4432136,18.082659 1.6884596,16.549543 1.5174445,15.823909 1.4173705,13.730798 1.2806625,10.871416 1.7380221,9.0257017 3.1327077,6.8078947 5.4555088,3.1141977 9.1956807,1.2905127 12.941176,1.2583767 Z m 0.171255,5.275289 c -1.786271,0 -3.5727638,0.179901 -4.2779879,0.539507 C 6.912107,8.0533987 6.664652,8.7275137 6.66915,12.967997 c 0.00455,4.282363 0.304239,5.224603 1.9151341,6.0185 0.7164236,0.353074 1.8056869,0.467422 4.4850519,0.472349 5.877548,0.01085 6.479454,-0.595277 6.466792,-6.512117 -0.0091,-4.2594503 -0.244302,-4.9040093 -2.145708,-5.8735563 -0.705224,-0.359606 -2.491717,-0.539507 -4.277989,-0.539507 z m -0.02236,1.47021 c 3.259757,0 3.704266,0.06052 4.262876,0.580918 0.865774,0.806598 0.983099,1.4961833 0.871377,5.1219413 -0.08746,2.838323 -0.164651,3.232756 -0.748254,3.815715 -0.592111,0.591455 -0.941109,0.654531 -3.868319,0.699004 -3.9165363,0.05947 -4.3339728,-0.02171 -5.0956364,-0.990028 -0.55146,-0.701064 -0.5925725,-1.062601 -0.5070455,-4.44812 0.1226355,-4.8544863 0.04238,-4.7794303 5.0850019,-4.7794303 z m 3.290762,0.859625 c -0.402161,0 -0.762144,0.796282 -0.529997,1.1719113 0.248222,0.401628 1.193407,0.308464 1.363317,-0.1343163 0.169435,-0.441532 -0.309394,-1.037595 -0.83332,-1.037595 z m -3.279569,1.002898 c -1.139287,0 -1.538478,0.1482913 -2.258756,0.8383573 -0.481182,0.460999 -0.9528028,1.25424 -1.0482293,1.762904 -0.2214095,1.180211 0.5497373,2.863387 1.5647903,3.415003 1.556692,0.845968 3.868118,0.312162 4.539341,-1.048788 0.615017,-1.24698 0.678769,-1.913926 0.274787,-2.868776 -0.643142,-1.520142 -1.489598,-2.0987003 -3.071933,-2.0987003 z m -0.115849,1.2894373 c 1.954823,0 2.794363,1.943104 1.429357,3.308111 -0.859236,0.859235 -1.561652,0.88959 -2.553136,0.109687 -1.452067,-1.142193 -0.703852,-3.417798 1.123779,-3.417798 z"
     id="path4491"
     inkscape:connector-curvature="0" />
</svg>
