<?xml version="1.0" encoding="UTF-8" standalone="no"?>
<!-- Created with Inkscape (http://www.inkscape.org/) -->

<svg
   xmlns:dc="http://purl.org/dc/elements/1.1/"
   xmlns:cc="http://creativecommons.org/ns#"
   xmlns:rdf="http://www.w3.org/1999/02/22-rdf-syntax-ns#"
   xmlns:svg="http://www.w3.org/2000/svg"
   xmlns="http://www.w3.org/2000/svg"
   xmlns:sodipodi="http://sodipodi.sourceforge.net/DTD/sodipodi-0.dtd"
   xmlns:inkscape="http://www.inkscape.org/namespaces/inkscape"
   version="1.1"
   id="svg2"
   width="26"
   height="25.958054"
   viewBox="0 0 26 25.958054"
   sodipodi:docname="vk.svg"
   inkscape:version="0.92.1 r15371">
  <metadata
     id="metadata8">
    <rdf:RDF>
      <cc:Work
         rdf:about="">
        <dc:format>image/svg+xml</dc:format>
        <dc:type
           rdf:resource="http://purl.org/dc/dcmitype/StillImage" />
        <dc:title />
      </cc:Work>
    </rdf:RDF>
  </metadata>
  <defs
     id="defs6" />
  <sodipodi:namedview
     pagecolor="#ffffff"
     bordercolor="#666666"
     borderopacity="1"
     objecttolerance="10"
     gridtolerance="10"
     guidetolerance="10"
     inkscape:pageopacity="0"
     inkscape:pageshadow="2"
     inkscape:window-width="1920"
     inkscape:window-height="1017"
     id="namedview4"
     showgrid="false"
     inkscape:zoom="1"
     inkscape:cx="-16.10496"
     inkscape:cy="-127.17835"
     inkscape:window-x="-8"
     inkscape:window-y="-8"
     inkscape:window-maximized="1"
     inkscape:current-layer="svg2" />
  <path
     style="fill:#fff3f3;stroke-width:0.28601262;fill-opacity:1"
     d="M 13.28856,0.00537789 C 9.6707378,-0.09856411 5.9828979,1.3024849 3.2351075,4.3586869 c -2.46258982,2.738997 -3.39017879,5.481795 -3.2142953,9.5032211 0.102323,2.339513 0.23600849,2.885968 1.161368,4.758312 1.6415424,3.321428 4.2477692,5.625971 7.7932917,6.89 1.1070411,0.39468 2.1232181,0.492719 4.4577711,0.430696 2.832524,-0.07526 3.15913,-0.147706 5.169456,-1.141263 C 25.081658,21.597577 27.800075,13.971934 24.751413,7.5523129 22.475958,2.7608509 17.940044,0.13901789 13.28856,0.00537789 Z m -5.59e-4,1.24683601 c 6.742014,0.173076 12.482079,6.670807 11.282979,13.5565491 -0.819988,4.708691 -3.774726,8.11031 -8.244652,9.490929 -3.09764,0.956768 -6.012324,0.661869 -8.954094,-0.90608 C 3.0578786,21.094087 0.51180917,15.975026 1.3240751,11.233048 2.2040516,6.0957539 5.9999669,2.3084379 11.170281,1.4080709 c 0.712316,-0.124046 1.420276,-0.173764 2.11772,-0.155857 z m -1.101594,7.610057 c -0.640439,-0.01872 -1.303757,0.05752 -1.592065,0.240207 -0.304505,0.192953 -0.316069,0.376935 -0.05531,0.864182 0.455007,0.8501931 0.277355,3.0288311 -0.246909,3.0288311 -0.221832,0 -0.8447527,-0.804414 -1.3842526,-1.787578 L 7.9269309,9.4203349 h -1.547377 c -1.9632599,0 -1.9824414,0.251784 -0.248027,3.2952851 1.5462265,2.713269 2.7272765,4.022096 4.2779031,4.741555 0.629226,0.291954 1.624896,0.533929 2.212685,0.537394 0.953394,0.0058 1.113918,-0.101875 1.487044,-0.994903 0.230048,-0.550576 0.488592,-1.001045 0.574814,-1.001045 0.08623,0 0.662994,0.457366 1.281475,1.016125 1.053143,0.95145 1.230274,1.010444 2.786946,0.929545 2.103803,-0.109336 2.228181,-0.532063 0.677047,-2.294246 -0.635193,-0.721617 -1.154667,-1.469344 -1.154667,-1.661328 0,-0.191991 0.518447,-1.125865 1.152431,-2.075268 0.63399,-0.949403 1.106774,-1.86682 1.050205,-2.0384001 -0.05655,-0.171587 -0.87882,-0.349804 -1.827241,-0.396058 l -1.724457,-0.0838 -0.805525,1.5920641 c -1.39295,2.753121 -2.135601,2.818959 -2.135601,0.189371 0,-0.903097 -0.154225,-1.7965611 -0.342992,-1.9853271 -0.196898,-0.196898 -0.814762,-0.310278 -1.4552,-0.32903 z"
     id="path4491"
     inkscape:connector-curvature="0" />
</svg>
